<?xml version="1.0" encoding="utf-8"?>
<!-- Generator: Adobe Illustrator 28.1.0, SVG Export Plug-In . SVG Version: 6.00 Build 0)  -->
<svg version="1.1" id="Layer_1" xmlns="http://www.w3.org/2000/svg" xmlns:xlink="http://www.w3.org/1999/xlink" x="0px" y="0px"
	 viewBox="0 0 283.46 283.46" style="enable-background:new 0 0 283.46 283.46;" xml:space="preserve">
<style type="text/css">
	.st0{fill:url(#SVGID_1_);}
	.st1{fill:url(#SVGID_00000174573811621678275760000009612883619232633508_);}
	.st2{fill:url(#SVGID_00000031927858495207356630000015730344000591330206_);}
	.st3{fill:url(#SVGID_00000109001306641335677410000009684533480741083304_);}
	.st4{fill:url(#SVGID_00000046324926105457814000000003116382896442059412_);}
	.st5{fill:url(#SVGID_00000116195779328860772590000009344125109127838110_);}
	.st6{fill:url(#SVGID_00000151508481990280791140000002403379747595811478_);}
	.st7{fill:url(#SVGID_00000041264718760328363650000012408740076550051518_);}
</style>
<linearGradient id="SVGID_1_" gradientUnits="userSpaceOnUse" x1="52.3489" y1="164.0817" x2="198.2498" y2="112.4677">
	<stop  offset="0" style="stop-color:#362467"/>
	<stop  offset="0.9944" style="stop-color:#34ADBF"/>
</linearGradient>
<path class="st0" d="M179.88,166.67v-49.14l17.82,8.65l0.78-1.6l-41.62-20.21c12.67-6.74,22.07-11.74,22.35-11.9l-0.42-0.78
	c-0.29,0.16-9.94,5.29-22.88,12.18V82.31H119.5v40.18l-15.54,8.16V112.5h-0.89v18.62l-0.41,0.21v0.84
	c-8.74,4.64-14.78,7.84-15.33,8.12l0.4,0.79c0.55-0.27,6.41-3.38,14.93-7.91v33.48H75.55v0.89h130.97v-0.89H179.88z M178.11,166.67
	h-22.2v-60.78l22.2,10.78V166.67z M104.45,132.41l31.94-16.78c0.16,19.63,0.3,47.49,0.04,51.04h-31.98V132.41z M137.27,115.16
	l17.75-9.32v60.83h-17.71C137.64,161.42,137.34,123.46,137.27,115.16z M120.39,83.2h34.63v20.28l-17.81-8.65l-0.78,1.6l16.99,8.25
	l-33.02,17.35V83.2z"/>
<g>
	<g>
		
			<linearGradient id="SVGID_00000145045182252440294460000011302652714436704679_" gradientUnits="userSpaceOnUse" x1="64.3845" y1="198.1037" x2="210.2855" y2="146.4897">
			<stop  offset="0" style="stop-color:#362467"/>
			<stop  offset="0.9944" style="stop-color:#34ADBF"/>
		</linearGradient>
		<path style="fill:url(#SVGID_00000145045182252440294460000011302652714436704679_);" d="M76.74,180.75h2.92v20.45h-2.92V180.75z
			 M81.38,192.44v-2.92h6.27v2.92H81.38z M92.33,180.75v20.45H89.4v-8.76h-0.04v-2.92h0.04v-8.76H92.33z"/>
		
			<linearGradient id="SVGID_00000026145291866829293090000018221018384139520391_" gradientUnits="userSpaceOnUse" x1="67.2269" y1="206.1386" x2="213.1279" y2="154.5246">
			<stop  offset="0" style="stop-color:#362467"/>
			<stop  offset="0.9944" style="stop-color:#34ADBF"/>
		</linearGradient>
		<path style="fill:url(#SVGID_00000026145291866829293090000018221018384139520391_);" d="M115.65,201.2h-3.16l-1.98-4.38h-0.01
			l-4.58-10.1l-4.58,10.1h-0.01l-1.98,4.38h-3.17l9.74-20.94L115.65,201.2z"/>
		
			<linearGradient id="SVGID_00000039106643107602889060000006539012971151068074_" gradientUnits="userSpaceOnUse" x1="69.2279" y1="211.795" x2="215.1289" y2="160.181">
			<stop  offset="0" style="stop-color:#362467"/>
			<stop  offset="0.9944" style="stop-color:#34ADBF"/>
		</linearGradient>
		<path style="fill:url(#SVGID_00000039106643107602889060000006539012971151068074_);" d="M136.6,180.75v20.94l-17.04-17.39v-4.03
			l14.12,14.49v-14H136.6z M119.56,186.76l2.92,2.94v11.5h-2.92V186.76z"/>
		
			<linearGradient id="SVGID_00000017482100474706747940000012456338719180128925_" gradientUnits="userSpaceOnUse" x1="71.145" y1="217.2142" x2="217.046" y2="165.6003">
			<stop  offset="0" style="stop-color:#362467"/>
			<stop  offset="0.9944" style="stop-color:#34ADBF"/>
		</linearGradient>
		<path style="fill:url(#SVGID_00000017482100474706747940000012456338719180128925_);" d="M157.71,190.98
			c0,5.66-3.77,10.22-10.44,10.22h-6.12v-2.92h6.88c3.99,0,6.76-3.26,6.76-7.3c0-4.05-2.77-7.3-6.76-7.3h-6.88v-2.92h6.12
			C154.09,180.75,157.71,185.32,157.71,190.98z"/>
		
			<linearGradient id="SVGID_00000158742669488326550040000005144980713860869530_" gradientUnits="userSpaceOnUse" x1="73.8384" y1="224.8277" x2="219.7394" y2="173.2137">
			<stop  offset="0" style="stop-color:#362467"/>
			<stop  offset="0.9944" style="stop-color:#34ADBF"/>
		</linearGradient>
		<path style="fill:url(#SVGID_00000158742669488326550040000005144980713860869530_);" d="M177.14,195.21
			c0,3.56-2.95,6.24-7.73,6.24c-4.93,0-7.55-2.95-7.85-3.32l1.46-2.62c1.7,1.89,4.05,3.01,6.45,3.01c3.07,0,4.75-1.25,4.75-3.2
			c0-1.64-1.86-2.65-4.66-3.13c-5.69-0.97-7.3-3.01-7.3-5.75c0-3.32,2.59-5.93,7.36-5.93c0.85,0,4.08,0.09,6.6,2.43l-1.4,2.65
			c-1.07-1.03-2.71-2.16-5.26-2.16c-2.8,0-4.38,1.07-4.38,2.89c0,1.58,1.4,2.31,4.63,2.95
			C174.68,190.21,177.14,191.77,177.14,195.21z"/>
		
			<linearGradient id="SVGID_00000155124050370928187180000002040268268694878893_" gradientUnits="userSpaceOnUse" x1="75.854" y1="230.5255" x2="221.755" y2="178.9115">
			<stop  offset="0" style="stop-color:#362467"/>
			<stop  offset="0.9944" style="stop-color:#34ADBF"/>
		</linearGradient>
		<path style="fill:url(#SVGID_00000155124050370928187180000002040268268694878893_);" d="M182.05,180.75h2.92v20.45h-2.92V180.75z
			 M186.64,201.2v-2.92h6.61v2.92H186.64z"/>
		
			<linearGradient id="SVGID_00000084519024084717413780000007202972187214173103_" gradientUnits="userSpaceOnUse" x1="76.8282" y1="233.2792" x2="222.7291" y2="181.6652">
			<stop  offset="0" style="stop-color:#362467"/>
			<stop  offset="0.9944" style="stop-color:#34ADBF"/>
		</linearGradient>
		<path style="fill:url(#SVGID_00000084519024084717413780000007202972187214173103_);" d="M194.59,180.75l6.94,12.17v8.28h-2.92
			v-8.28l-7.3-12.17H194.59z M208.83,180.75l-6.4,10.67l-1.55-2.7l4.66-7.98L208.83,180.75L208.83,180.75z"/>
	</g>
</g>
</svg>
